<svg xmlns="http://www.w3.org/2000/svg" xmlns:oryx="http://oryx-editor.org" id="_17DCB2C5-AEB5-4562-B77E-A0301A42695B" width="709" height="205" xmlns:xlink="http://www.w3.org/1999/xlink" xmlns:svg="http://www.w3.org/2000/svg"><defs><marker id="_E9FE496D-88BF-42AB-B917-FD3E8A8260D5start" refX="1" refY="5" markerUnits="userSpaceOnUse" markerWidth="17" markerHeight="11" orient="auto" fill="#000000" stroke="#000000"> 	  		<path id="_E9FE496D-88BF-42AB-B917-FD3E8A8260D5conditional" d="M 0 5 L 8 0 L 16 5 L 8 10 L 0 5" fill="white" stroke="#000000" stroke-width="1" display="none"/> 			<path id="_E9FE496D-88BF-42AB-B917-FD3E8A8260D5default" d="M 5 0 L 11 10" fill="white" stroke="#000000" stroke-width="1" display="none"/> 	  	</marker><marker id="_E9FE496D-88BF-42AB-B917-FD3E8A8260D5end" refX="15" refY="6" markerUnits="userSpaceOnUse" markerWidth="15" markerHeight="12" orient="auto" fill="#000000" stroke="#000000"> 	  		<path id="_E9FE496D-88BF-42AB-B917-FD3E8A8260D5frame2" d="M 0 1 L 15 6 L 0 11z" fill="#000000" stroke="#000000" stroke-linejoin="round" stroke-width="2"/> 	  	</marker><marker id="_FA7D2E72-E21A-44D9-9416-9382E0467C1Cstart" refX="1" refY="5" markerUnits="userSpaceOnUse" markerWidth="17" markerHeight="11" orient="auto" fill="#000000" stroke="#000000"> 	  		<path id="_FA7D2E72-E21A-44D9-9416-9382E0467C1Cconditional" d="M 0 5 L 8 0 L 16 5 L 8 10 L 0 5" fill="white" stroke="#000000" stroke-width="1" display="none"/> 			<path id="_FA7D2E72-E21A-44D9-9416-9382E0467C1Cdefault" d="M 5 0 L 11 10" fill="white" stroke="#000000" stroke-width="1" display="none"/> 	  	</marker><marker id="_FA7D2E72-E21A-44D9-9416-9382E0467C1Cend" refX="15" refY="6" markerUnits="userSpaceOnUse" markerWidth="15" markerHeight="12" orient="auto" fill="#000000" stroke="#000000"> 	  		<path id="_FA7D2E72-E21A-44D9-9416-9382E0467C1Cframe2" d="M 0 1 L 15 6 L 0 11z" fill="#000000" stroke="#000000" stroke-linejoin="round" stroke-width="2"/> 	  	</marker><marker id="_A3D3D22A-8B49-4374-BD7A-B3D28329203Cstart" refX="1" refY="5" markerUnits="userSpaceOnUse" markerWidth="17" markerHeight="11" orient="auto" fill="#000000" stroke="#000000"> 	  		<path id="_A3D3D22A-8B49-4374-BD7A-B3D28329203Cconditional" d="M 0 5 L 8 0 L 16 5 L 8 10 L 0 5" fill="white" stroke="#000000" stroke-width="1" display="none"/> 			<path id="_A3D3D22A-8B49-4374-BD7A-B3D28329203Cdefault" d="M 5 0 L 11 10" fill="white" stroke="#000000" stroke-width="1" display="none"/> 	  	</marker><marker id="_A3D3D22A-8B49-4374-BD7A-B3D28329203Cend" refX="15" refY="6" markerUnits="userSpaceOnUse" markerWidth="15" markerHeight="12" orient="auto" fill="#000000" stroke="#000000"> 	  		<path id="_A3D3D22A-8B49-4374-BD7A-B3D28329203Cframe2" d="M 0 1 L 15 6 L 0 11z" fill="#000000" stroke="#000000" stroke-linejoin="round" stroke-width="2"/> 	  	</marker><marker id="_56220093-F345-4443-A0CD-E968BCCC1287start" refX="1" refY="5" markerUnits="userSpaceOnUse" markerWidth="17" markerHeight="11" orient="auto" fill="#000000" stroke="#000000"> 	  		<path id="_56220093-F345-4443-A0CD-E968BCCC1287conditional" d="M 0 5 L 8 0 L 16 5 L 8 10 L 0 5" fill="white" stroke="#000000" stroke-width="1" display="none"/> 			<path id="_56220093-F345-4443-A0CD-E968BCCC1287default" d="M 5 0 L 11 10" fill="white" stroke="#000000" stroke-width="1" display="none"/> 	  	</marker><marker id="_56220093-F345-4443-A0CD-E968BCCC1287end" refX="15" refY="6" markerUnits="userSpaceOnUse" markerWidth="15" markerHeight="12" orient="auto" fill="#000000" stroke="#000000"> 	  		<path id="_56220093-F345-4443-A0CD-E968BCCC1287frame2" d="M 0 1 L 15 6 L 0 11z" fill="#000000" stroke="#000000" stroke-linejoin="round" stroke-width="2"/> 	  	</marker></defs><g stroke="none" font-family="Verdana, sans-serif" font-size-adjust="none" font-style="normal" font-variant="normal" font-weight="normal" line-heigth="normal" font-size="12"><g class="stencils" transform="translate(16, 16)"><g class="me"/><g class="children"><g id="_86D58D4F-9640-4B02-B4DB-8EFF7F84E634" bpmn2nodeid="processStartEvent"><g class="stencils" transform="translate(75, 105)"><g class="me"><g pointer-events="fill" id="_86D58D4F-9640-4B02-B4DB-8EFF7F84E634">        <defs id="_86D58D4F-9640-4B02-B4DB-8EFF7F84E634__86D58D4F-9640-4B02-B4DB-8EFF7F84E634_5"> 		<radialGradient id="_86D58D4F-9640-4B02-B4DB-8EFF7F84E634background" cx="10%" cy="10%" r="100%" fx="10%" fy="10%"> 			<stop offset="0%" stop-color="#ffffff" stop-opacity="1" id="_86D58D4F-9640-4B02-B4DB-8EFF7F84E634__86D58D4F-9640-4B02-B4DB-8EFF7F84E634_6"/> 			<stop id="_86D58D4F-9640-4B02-B4DB-8EFF7F84E634fill_el" offset="100%" stop-color="#9acd32" stop-opacity="1"/> 		</radialGradient> 	</defs> 	     <circle id="_86D58D4F-9640-4B02-B4DB-8EFF7F84E634bg_frame" cx="15" cy="15" r="15" stroke="#000000" fill="url(#_86D58D4F-9640-4B02-B4DB-8EFF7F84E634background) white" stroke-width="1" style="stroke-dasharray: 5.5, 3"/>      <circle id="_86D58D4F-9640-4B02-B4DB-8EFF7F84E634frame" cx="15" cy="15" r="15" stroke="#000000" fill="none" stroke-width="1" display="inherit"/>  	<text font-size="11" id="_86D58D4F-9640-4B02-B4DB-8EFF7F84E634text_name" x="15" y="32" oryx:align="top center" stroke="black" stroke-width="0pt" letter-spacing="-0.01px" fill="#000000" text-anchor="middle" transform="rotate(0 15 32)" visibility="inherit" oryx:fontSize="11"/>   </g></g><g class="children" style="overflow:hidden"/><g class="edge"/></g><g class="controls"><g class="dockers"/><g class="magnets" transform="translate(75, 105)"><g pointer-events="all" display="none" transform="translate(7, 7)"><circle cx="8" cy="8" r="4" stroke="none" fill="red" fill-opacity="0.3"/></g></g></g></g><g id="_7890603E-6ADA-489B-A002-7D7EEF9DDD10" bpmn2nodeid="_5024BCB9-022A-49F9-8FDC-DB6417FADEEE"><g class="stencils" transform="translate(165, 80)"><g class="me"><g pointer-events="fill" oryx:minimumSize="50 40" id="_7890603E-6ADA-489B-A002-7D7EEF9DDD10">   	<defs id="_7890603E-6ADA-489B-A002-7D7EEF9DDD10__7890603E-6ADA-489B-A002-7D7EEF9DDD10_17"> 		<radialGradient id="_7890603E-6ADA-489B-A002-7D7EEF9DDD10background" cx="10%" cy="10%" r="100%" fx="10%" fy="10%"> 			<stop offset="0%" stop-color="#ffffff" stop-opacity="1" id="_7890603E-6ADA-489B-A002-7D7EEF9DDD10__7890603E-6ADA-489B-A002-7D7EEF9DDD10_18"/> 			<stop id="_7890603E-6ADA-489B-A002-7D7EEF9DDD10fill_el" offset="100%" stop-color="#fafad2" stop-opacity="1"/> 		</radialGradient> 		<radialGradient id="_7890603E-6ADA-489B-A002-7D7EEF9DDD10borderbackground" cx="10%" cy="10%" r="100%" fx="10%" fy="10%"> 			<stop offset="0%" stop-color="#ffffff" stop-opacity="1" id="_7890603E-6ADA-489B-A002-7D7EEF9DDD10__7890603E-6ADA-489B-A002-7D7EEF9DDD10_19"/> 			<stop id="_7890603E-6ADA-489B-A002-7D7EEF9DDD10fill_border" offset="100%" stop-color="#000000" stop-opacity="1" stroke="#000000"/> 		</radialGradient> 	</defs> 	 	<rect id="_7890603E-6ADA-489B-A002-7D7EEF9DDD10text_frame" oryx:anchors="bottom top right left" x="1" y="1" width="94" height="79" rx="10" ry="10" stroke="none" stroke-width="0" fill="none"/> 	<rect id="_7890603E-6ADA-489B-A002-7D7EEF9DDD10bg_frame" oryx:resize="vertical horizontal" x="0" y="0" width="100" height="80" rx="10" ry="10" stroke="#000000" stroke-width="1" fill="url(#_7890603E-6ADA-489B-A002-7D7EEF9DDD10background) #ffffcc"/> 		<text font-size="12" id="_7890603E-6ADA-489B-A002-7D7EEF9DDD10text_name" x="50" y="40" oryx:align="middle center" oryx:fittoelem="text_frame" stroke="black" text-anchor="middle" stroke-width="0pt" letter-spacing="-0.01px" fill="#000000" transform="rotate(0 50 40)" visibility="inherit" oryx:fontSize="12"><tspan x="50" y="40" dy="5" id="ext-gen930">firstScript</tspan></text>     <g id="_7890603E-6ADA-489B-A002-7D7EEF9DDD10manualTask" transform="scale(0.7,0.7) translate(8,8)" display="none">     	<path oryx:anchors="top left" id="_7890603E-6ADA-489B-A002-7D7EEF9DDD10frame" style="opacity:1;fill:none;fill-opacity:1;stroke-width:1" d="M0.5,3.751l4.083-3.25c0,0,11.166,0.083,12.083,0.083s-2.417,2.917-1.5,2.917     s11.667,0,12.584,0c1.166,1.708-0.168,3.167-0.834,3.667s0.875,1.917-1,4.417c-0.75,0.25,0.75,1.875-1.333,3.333     c-1.167,0.583,0.583,1.542-1.25,2.833c-1.167,0-20.833,0.083-20.833,0.083l-2-1.333V3.751z" stroke="#000000"/> 		<path id="_7890603E-6ADA-489B-A002-7D7EEF9DDD10frame2" oryx:anchors="top left" style="opacity:1;fill:none;stroke-width:2" d="M 13.5 7 L 27 7" stroke="#000000"/> 		<path id="_7890603E-6ADA-489B-A002-7D7EEF9DDD10frame3" oryx:anchors="top left" style="opacity:1;fill:none;stroke-width:2" d="M 13.5 11 L 26 11" stroke="#000000"/> 		<path id="_7890603E-6ADA-489B-A002-7D7EEF9DDD10frame4" oryx:anchors="top left" style="opacity:1;fill:none;stroke-width:1.5" d="M 14 14.5 L 25 14.5" stroke="#000000"/> 		<path id="_7890603E-6ADA-489B-A002-7D7EEF9DDD10frame5" oryx:anchors="top left" style="opacity:1;fill:none;stroke-width:1.5" d="M 8.2 3.1 L 15 3.1" stroke="#000000"/> 	</g> 	 	<g id="_7890603E-6ADA-489B-A002-7D7EEF9DDD10businessRuleTask" transform="scale(0.7,0.7) translate(8,8)" display="none"> 		<rect id="_7890603E-6ADA-489B-A002-7D7EEF9DDD10frame6" oryx:anchors="top left" x="0" y="0" width="22" height="4" style="opacity:1;fill:#B3B1B3;fill-opacity:1;" stroke="#000000"/> 		<rect id="_7890603E-6ADA-489B-A002-7D7EEF9DDD10frame7" oryx:anchors="top left" x="0" y="4" style="opacity:1;fill:none;" width="22" height="12" stroke="#000000"/> 		<path id="_7890603E-6ADA-489B-A002-7D7EEF9DDD10frame8" oryx:anchors="top left" style="opacity:1;fill:none;" d="M 0 10 L 22 10" stroke="#000000"/> 		<path id="_7890603E-6ADA-489B-A002-7D7EEF9DDD10frame9" oryx:anchors="top left" style="opacity:1; fill:none;" d="M 7 4 L 7 16" stroke="#000000"/> 	</g> 	 	<g id="_7890603E-6ADA-489B-A002-7D7EEF9DDD10scriptTask" transform="scale(0.7,0.7) translate(8,8)" display="inherit"> 		<path oryx:anchors="top left" id="_7890603E-6ADA-489B-A002-7D7EEF9DDD10frame10" style="opacity:1;fill:none;" stroke="#000000" d="M6.402,0.5h14.5c0,0-5.833,2.833-5.833,5.583s4.417,6,4.417,9.167    s-4.167,5.083-4.167,5.083H0.235c0,0,5-2.667,5-5s-4.583-6.75-4.583-9.25S6.402,0.5,6.402,0.5z"/> 		<path oryx:anchors="top left" id="_7890603E-6ADA-489B-A002-7D7EEF9DDD10frame11" style="opacity:1;fill:none;stroke-width:1.5" d="M 3.5 4.5 L 13.5 4.5" stroke="#000000"/> 		<path oryx:anchors="top left" id="_7890603E-6ADA-489B-A002-7D7EEF9DDD10frame12" style="opacity:1;fill:none;stroke-width:1.5" d="M 3.8 8.5 L 13.8 8.5" stroke="#000000"/> 		<path oryx:anchors="top left" id="_7890603E-6ADA-489B-A002-7D7EEF9DDD10frame13" style="opacity:1;fill:none;stroke-width:1.5" d="M 6.3 12.5 L 16.3 12.5" stroke="#000000"/> 		<path oryx:anchors="top left" id="_7890603E-6ADA-489B-A002-7D7EEF9DDD10frame14" style="opacity:1;fill:none;stroke-width:1.5" d="M 6.5 16.5 L 16.5 16.5" stroke="#000000"/> 	</g> 	 	<g id="_7890603E-6ADA-489B-A002-7D7EEF9DDD10userTask" transform="scale(0.7,0.7) translate(8,8)" display="none"> 		<path id="_7890603E-6ADA-489B-A002-7D7EEF9DDD10frame15" oryx:anchors="top left" style="opacity:1;fill:#F4F6F7" stroke="#000000" d="M0.585,24.167h24.083v-7.833c0,0-2.333-3.917-7.083-5.167h-9.25    c-4.417,1.333-7.833,5.75-7.833,5.75L0.585,24.167z"/> 		<path id="_7890603E-6ADA-489B-A002-7D7EEF9DDD10frame16" oryx:anchors="top left" style="opacity:1;fill:none" d="M 6 20 L 6 24" stroke="#000000"/> 		<path id="_7890603E-6ADA-489B-A002-7D7EEF9DDD10frame17" oryx:anchors="top left" style="opacity:1;fill:none" d="M 20 20 L 20 24" stroke="#000000"/> 		<circle id="_7890603E-6ADA-489B-A002-7D7EEF9DDD10frame18" oryx:anchors="top left" fill="black" cx="13.002" cy="5.916" r="5.417" stroke="#000000"/> 		<path id="_7890603E-6ADA-489B-A002-7D7EEF9DDD10frame19" oryx:anchors="top left" style="opacity:1;fill:#F0EFF0;" stroke="#000000" d="M8.043,7.083c0,0,2.814-2.426,5.376-1.807s4.624-0.693,4.624-0.693    c0.25,1.688,0.042,3.75-1.458,5.584c0,0,1.083,0.75,1.083,1.5s0.125,1.875-1,3s-5.5,1.25-6.75,0S8.668,12.834,8.668,12    s0.583-1.25,1.25-1.917C8.835,9.5,7.419,7.708,8.043,7.083z"/> 	</g> 	 	<g id="_7890603E-6ADA-489B-A002-7D7EEF9DDD10serviceTask" transform="scale(0.7,0.7) translate(8,8)" display="none"> 		<polygon oryx:anchors="top left" id="_7890603E-6ADA-489B-A002-7D7EEF9DDD10frame20" style="opacity:1;fill:#ffffff" stroke="#000000" points="15.392,5.064 17.954,2.502 20.347,4.895 17.786,7.455     18.729,9.732 22.353,9.732 22.353,13.115 18.731,13.115 17.788,15.392 20.351,17.955 17.958,20.347 15.397,17.786 13.12,18.729     13.12,22.353 9.737,22.353 9.737,18.731 7.46,17.788 4.897,20.35 2.506,17.958 5.066,15.397 4.124,13.12 0.5,13.12 0.5,9.737     4.121,9.737 5.065,7.461 2.503,4.898 4.895,2.506 7.455,5.066 9.732,4.125 9.732,0.5 13.116,0.5 13.116,4.121 "/> 		<circle oryx:anchors="top left" id="_7890603E-6ADA-489B-A002-7D7EEF9DDD10frame21" style="opacity:1;fill:none" stroke="#000000" cx="11.427" cy="11.426" r="3.714"/> 		<polygon oryx:anchors="top left" id="_7890603E-6ADA-489B-A002-7D7EEF9DDD10frame22" style="opacity:1;fill:#ffffff" stroke="#000000" points="21.392,11.064 23.954,8.502 26.347,10.895 23.786,13.455     24.729,15.732 28.353,15.732 28.353,19.115 24.731,19.115 23.788,21.392 26.351,23.955 23.958,26.347 21.397,23.786 19.12,24.729     19.12,28.353 15.737,28.353 15.737,24.731 13.46,23.788 10.897,26.35 8.506,23.958 11.066,21.397 10.124,19.12 6.5,19.12     6.5,15.737 10.121,15.737 11.065,13.461 8.503,10.898 10.895,8.506 13.455,11.066 15.732,10.125 15.732,6.5 19.116,6.5     19.116,10.121 "/> 		<circle oryx:anchors="top left" id="_7890603E-6ADA-489B-A002-7D7EEF9DDD10frame23" style="opacity:1;fill:none;" stroke="#000000" cx="17.427" cy="17.426" r="3.714"/> 	</g> 	 	<g id="_7890603E-6ADA-489B-A002-7D7EEF9DDD10sendTask" display="none"> 		<path id="_7890603E-6ADA-489B-A002-7D7EEF9DDD10stframe24" oryx:anchors="left top" stroke="#FFFFFF" fill="black" stroke-width="1" d="M8,11 L8,21 L24,21 L24,11 L16,17z"/> 		<path id="_7890603E-6ADA-489B-A002-7D7EEF9DDD10stframe25" oryx:anchors="left top" stroke="#FFFFFF" fill="black" stroke-width="1" d="M7,10 L16,17 L25 10z"/> 	</g> 	 	<g id="_7890603E-6ADA-489B-A002-7D7EEF9DDD10receiveTask" display="none"> 		<path id="_7890603E-6ADA-489B-A002-7D7EEF9DDD10frame26" oryx:anchors="left top" stroke="#000000" fill="none" stroke-width="1" d="M8,11 L8,21 L24,21 L24,11z M8,11 L16,17 L24,11"/> 	</g> 	 	<g id="_7890603E-6ADA-489B-A002-7D7EEF9DDD10none" display="inherit"/>  	<g id="_7890603E-6ADA-489B-A002-7D7EEF9DDD10sequential" display="none">         <path oryx:anchors="bottom" fill="none" stroke="#000000" stroke-width="2" d="M46,76h10M46,72h10 M46,68h10" id="_7890603E-6ADA-489B-A002-7D7EEF9DDD10__7890603E-6ADA-489B-A002-7D7EEF9DDD10_20"/>     </g>   </g></g><g class="children" style="overflow:hidden"/><g class="edge"/></g><g class="controls"><g class="dockers"/><g class="magnets" transform="translate(165, 80)"><g pointer-events="all" display="none" transform="translate(-7, 12)"><circle cx="8" cy="8" r="4" stroke="none" fill="red" fill-opacity="0.3"/></g><g pointer-events="all" display="none" transform="translate(-7, 32)"><circle cx="8" cy="8" r="4" stroke="none" fill="red" fill-opacity="0.3"/></g><g pointer-events="all" display="none" transform="translate(-7, 52)"><circle cx="8" cy="8" r="4" stroke="none" fill="red" fill-opacity="0.3"/></g><g pointer-events="all" display="none" transform="translate(17, 71)"><circle cx="8" cy="8" r="4" stroke="none" fill="red" fill-opacity="0.3"/></g><g pointer-events="all" display="none" transform="translate(42, 71)"><circle cx="8" cy="8" r="4" stroke="none" fill="red" fill-opacity="0.3"/></g><g pointer-events="all" display="none" transform="translate(67, 71)"><circle cx="8" cy="8" r="4" stroke="none" fill="red" fill-opacity="0.3"/></g><g pointer-events="all" display="none" transform="translate(91, 12)"><circle cx="8" cy="8" r="4" stroke="none" fill="red" fill-opacity="0.3"/></g><g pointer-events="all" display="none" transform="translate(91, 32)"><circle cx="8" cy="8" r="4" stroke="none" fill="red" fill-opacity="0.3"/></g><g pointer-events="all" display="none" transform="translate(91, 52)"><circle cx="8" cy="8" r="4" stroke="none" fill="red" fill-opacity="0.3"/></g><g pointer-events="all" display="none" transform="translate(17, -7)"><circle cx="8" cy="8" r="4" stroke="none" fill="red" fill-opacity="0.3"/></g><g pointer-events="all" display="none" transform="translate(42, -7)"><circle cx="8" cy="8" r="4" stroke="none" fill="red" fill-opacity="0.3"/></g><g pointer-events="all" display="none" transform="translate(67, -7)"><circle cx="8" cy="8" r="4" stroke="none" fill="red" fill-opacity="0.3"/></g><g pointer-events="all" display="none" transform="translate(42, 32)"><circle cx="8" cy="8" r="4" stroke="none" fill="red" fill-opacity="0.3"/></g></g></g></g><g id="_D76DCC38-B2BB-444B-ADFF-7821AFE88402" bpmn2nodeid="_DC5EB911-C225-47D0-8AAB-90108AB20D78"><g class="stencils" transform="translate(315, 80)"><g class="me"><g pointer-events="fill" oryx:minimumSize="50 40" id="_D76DCC38-B2BB-444B-ADFF-7821AFE88402">   	<defs id="_D76DCC38-B2BB-444B-ADFF-7821AFE88402__D76DCC38-B2BB-444B-ADFF-7821AFE88402_17"> 		<radialGradient id="_D76DCC38-B2BB-444B-ADFF-7821AFE88402background" cx="10%" cy="10%" r="100%" fx="10%" fy="10%"> 			<stop offset="0%" stop-color="#ffffff" stop-opacity="1" id="_D76DCC38-B2BB-444B-ADFF-7821AFE88402__D76DCC38-B2BB-444B-ADFF-7821AFE88402_18"/> 			<stop id="_D76DCC38-B2BB-444B-ADFF-7821AFE88402fill_el" offset="100%" stop-color="#fafad2" stop-opacity="1"/> 		</radialGradient> 		<radialGradient id="_D76DCC38-B2BB-444B-ADFF-7821AFE88402borderbackground" cx="10%" cy="10%" r="100%" fx="10%" fy="10%"> 			<stop offset="0%" stop-color="#ffffff" stop-opacity="1" id="_D76DCC38-B2BB-444B-ADFF-7821AFE88402__D76DCC38-B2BB-444B-ADFF-7821AFE88402_19"/> 			<stop id="_D76DCC38-B2BB-444B-ADFF-7821AFE88402fill_border" offset="100%" stop-color="#000000" stop-opacity="1" stroke="#000000"/> 		</radialGradient> 	</defs> 	 	<rect id="_D76DCC38-B2BB-444B-ADFF-7821AFE88402text_frame" oryx:anchors="bottom top right left" x="1" y="1" width="94" height="79" rx="10" ry="10" stroke="none" stroke-width="0" fill="none"/> 	<rect id="_D76DCC38-B2BB-444B-ADFF-7821AFE88402bg_frame" oryx:resize="vertical horizontal" x="0" y="0" width="100" height="80" rx="10" ry="10" stroke="#000000" stroke-width="1" fill="url(#_D76DCC38-B2BB-444B-ADFF-7821AFE88402background) #ffffcc"/> 		<text font-size="12" id="_D76DCC38-B2BB-444B-ADFF-7821AFE88402text_name" x="50" y="40" oryx:align="middle center" oryx:fittoelem="text_frame" stroke="black" text-anchor="middle" stroke-width="0pt" letter-spacing="-0.01px" fill="#000000" transform="rotate(0 50 40)" visibility="inherit" oryx:fontSize="12"><tspan x="50" y="40" dy="5" id="ext-gen945">employeeTask</tspan></text>     <g id="_D76DCC38-B2BB-444B-ADFF-7821AFE88402manualTask" transform="scale(0.7,0.7) translate(8,8)" display="none">     	<path oryx:anchors="top left" id="_D76DCC38-B2BB-444B-ADFF-7821AFE88402frame" style="opacity:1;fill:none;fill-opacity:1;stroke-width:1" d="M0.5,3.751l4.083-3.25c0,0,11.166,0.083,12.083,0.083s-2.417,2.917-1.5,2.917     s11.667,0,12.584,0c1.166,1.708-0.168,3.167-0.834,3.667s0.875,1.917-1,4.417c-0.75,0.25,0.75,1.875-1.333,3.333     c-1.167,0.583,0.583,1.542-1.25,2.833c-1.167,0-20.833,0.083-20.833,0.083l-2-1.333V3.751z" stroke="#000000"/> 		<path id="_D76DCC38-B2BB-444B-ADFF-7821AFE88402frame2" oryx:anchors="top left" style="opacity:1;fill:none;stroke-width:2" d="M 13.5 7 L 27 7" stroke="#000000"/> 		<path id="_D76DCC38-B2BB-444B-ADFF-7821AFE88402frame3" oryx:anchors="top left" style="opacity:1;fill:none;stroke-width:2" d="M 13.5 11 L 26 11" stroke="#000000"/> 		<path id="_D76DCC38-B2BB-444B-ADFF-7821AFE88402frame4" oryx:anchors="top left" style="opacity:1;fill:none;stroke-width:1.5" d="M 14 14.5 L 25 14.5" stroke="#000000"/> 		<path id="_D76DCC38-B2BB-444B-ADFF-7821AFE88402frame5" oryx:anchors="top left" style="opacity:1;fill:none;stroke-width:1.5" d="M 8.2 3.1 L 15 3.1" stroke="#000000"/> 	</g> 	 	<g id="_D76DCC38-B2BB-444B-ADFF-7821AFE88402businessRuleTask" transform="scale(0.7,0.7) translate(8,8)" display="none"> 		<rect id="_D76DCC38-B2BB-444B-ADFF-7821AFE88402frame6" oryx:anchors="top left" x="0" y="0" width="22" height="4" style="opacity:1;fill:#B3B1B3;fill-opacity:1;" stroke="#000000"/> 		<rect id="_D76DCC38-B2BB-444B-ADFF-7821AFE88402frame7" oryx:anchors="top left" x="0" y="4" style="opacity:1;fill:none;" width="22" height="12" stroke="#000000"/> 		<path id="_D76DCC38-B2BB-444B-ADFF-7821AFE88402frame8" oryx:anchors="top left" style="opacity:1;fill:none;" d="M 0 10 L 22 10" stroke="#000000"/> 		<path id="_D76DCC38-B2BB-444B-ADFF-7821AFE88402frame9" oryx:anchors="top left" style="opacity:1; fill:none;" d="M 7 4 L 7 16" stroke="#000000"/> 	</g> 	 	<g id="_D76DCC38-B2BB-444B-ADFF-7821AFE88402scriptTask" transform="scale(0.7,0.7) translate(8,8)" display="none"> 		<path oryx:anchors="top left" id="_D76DCC38-B2BB-444B-ADFF-7821AFE88402frame10" style="opacity:1;fill:none;" stroke="#000000" d="M6.402,0.5h14.5c0,0-5.833,2.833-5.833,5.583s4.417,6,4.417,9.167    s-4.167,5.083-4.167,5.083H0.235c0,0,5-2.667,5-5s-4.583-6.75-4.583-9.25S6.402,0.5,6.402,0.5z"/> 		<path oryx:anchors="top left" id="_D76DCC38-B2BB-444B-ADFF-7821AFE88402frame11" style="opacity:1;fill:none;stroke-width:1.5" d="M 3.5 4.5 L 13.5 4.5" stroke="#000000"/> 		<path oryx:anchors="top left" id="_D76DCC38-B2BB-444B-ADFF-7821AFE88402frame12" style="opacity:1;fill:none;stroke-width:1.5" d="M 3.8 8.5 L 13.8 8.5" stroke="#000000"/> 		<path oryx:anchors="top left" id="_D76DCC38-B2BB-444B-ADFF-7821AFE88402frame13" style="opacity:1;fill:none;stroke-width:1.5" d="M 6.3 12.5 L 16.3 12.5" stroke="#000000"/> 		<path oryx:anchors="top left" id="_D76DCC38-B2BB-444B-ADFF-7821AFE88402frame14" style="opacity:1;fill:none;stroke-width:1.5" d="M 6.5 16.5 L 16.5 16.5" stroke="#000000"/> 	</g> 	 	<g id="_D76DCC38-B2BB-444B-ADFF-7821AFE88402userTask" transform="scale(0.7,0.7) translate(8,8)" display="inherit"> 		<path id="_D76DCC38-B2BB-444B-ADFF-7821AFE88402frame15" oryx:anchors="top left" style="opacity:1;fill:#F4F6F7" stroke="#000000" d="M0.585,24.167h24.083v-7.833c0,0-2.333-3.917-7.083-5.167h-9.25    c-4.417,1.333-7.833,5.75-7.833,5.75L0.585,24.167z"/> 		<path id="_D76DCC38-B2BB-444B-ADFF-7821AFE88402frame16" oryx:anchors="top left" style="opacity:1;fill:none" d="M 6 20 L 6 24" stroke="#000000"/> 		<path id="_D76DCC38-B2BB-444B-ADFF-7821AFE88402frame17" oryx:anchors="top left" style="opacity:1;fill:none" d="M 20 20 L 20 24" stroke="#000000"/> 		<circle id="_D76DCC38-B2BB-444B-ADFF-7821AFE88402frame18" oryx:anchors="top left" fill="black" cx="13.002" cy="5.916" r="5.417" stroke="#000000"/> 		<path id="_D76DCC38-B2BB-444B-ADFF-7821AFE88402frame19" oryx:anchors="top left" style="opacity:1;fill:#F0EFF0;" stroke="#000000" d="M8.043,7.083c0,0,2.814-2.426,5.376-1.807s4.624-0.693,4.624-0.693    c0.25,1.688,0.042,3.75-1.458,5.584c0,0,1.083,0.75,1.083,1.5s0.125,1.875-1,3s-5.5,1.25-6.75,0S8.668,12.834,8.668,12    s0.583-1.25,1.25-1.917C8.835,9.5,7.419,7.708,8.043,7.083z"/> 	</g> 	 	<g id="_D76DCC38-B2BB-444B-ADFF-7821AFE88402serviceTask" transform="scale(0.7,0.7) translate(8,8)" display="none"> 		<polygon oryx:anchors="top left" id="_D76DCC38-B2BB-444B-ADFF-7821AFE88402frame20" style="opacity:1;fill:#ffffff" stroke="#000000" points="15.392,5.064 17.954,2.502 20.347,4.895 17.786,7.455     18.729,9.732 22.353,9.732 22.353,13.115 18.731,13.115 17.788,15.392 20.351,17.955 17.958,20.347 15.397,17.786 13.12,18.729     13.12,22.353 9.737,22.353 9.737,18.731 7.46,17.788 4.897,20.35 2.506,17.958 5.066,15.397 4.124,13.12 0.5,13.12 0.5,9.737     4.121,9.737 5.065,7.461 2.503,4.898 4.895,2.506 7.455,5.066 9.732,4.125 9.732,0.5 13.116,0.5 13.116,4.121 "/> 		<circle oryx:anchors="top left" id="_D76DCC38-B2BB-444B-ADFF-7821AFE88402frame21" style="opacity:1;fill:none" stroke="#000000" cx="11.427" cy="11.426" r="3.714"/> 		<polygon oryx:anchors="top left" id="_D76DCC38-B2BB-444B-ADFF-7821AFE88402frame22" style="opacity:1;fill:#ffffff" stroke="#000000" points="21.392,11.064 23.954,8.502 26.347,10.895 23.786,13.455     24.729,15.732 28.353,15.732 28.353,19.115 24.731,19.115 23.788,21.392 26.351,23.955 23.958,26.347 21.397,23.786 19.12,24.729     19.12,28.353 15.737,28.353 15.737,24.731 13.46,23.788 10.897,26.35 8.506,23.958 11.066,21.397 10.124,19.12 6.5,19.12     6.5,15.737 10.121,15.737 11.065,13.461 8.503,10.898 10.895,8.506 13.455,11.066 15.732,10.125 15.732,6.5 19.116,6.5     19.116,10.121 "/> 		<circle oryx:anchors="top left" id="_D76DCC38-B2BB-444B-ADFF-7821AFE88402frame23" style="opacity:1;fill:none;" stroke="#000000" cx="17.427" cy="17.426" r="3.714"/> 	</g> 	 	<g id="_D76DCC38-B2BB-444B-ADFF-7821AFE88402sendTask" display="none"> 		<path id="_D76DCC38-B2BB-444B-ADFF-7821AFE88402stframe24" oryx:anchors="left top" stroke="#FFFFFF" fill="black" stroke-width="1" d="M8,11 L8,21 L24,21 L24,11 L16,17z"/> 		<path id="_D76DCC38-B2BB-444B-ADFF-7821AFE88402stframe25" oryx:anchors="left top" stroke="#FFFFFF" fill="black" stroke-width="1" d="M7,10 L16,17 L25 10z"/> 	</g> 	 	<g id="_D76DCC38-B2BB-444B-ADFF-7821AFE88402receiveTask" display="none"> 		<path id="_D76DCC38-B2BB-444B-ADFF-7821AFE88402frame26" oryx:anchors="left top" stroke="#000000" fill="none" stroke-width="1" d="M8,11 L8,21 L24,21 L24,11z M8,11 L16,17 L24,11"/> 	</g> 	 	<g id="_D76DCC38-B2BB-444B-ADFF-7821AFE88402none" display="inherit"/>  	<g id="_D76DCC38-B2BB-444B-ADFF-7821AFE88402sequential" display="none">         <path oryx:anchors="bottom" fill="none" stroke="#000000" stroke-width="2" d="M46,76h10M46,72h10 M46,68h10" id="_D76DCC38-B2BB-444B-ADFF-7821AFE88402__D76DCC38-B2BB-444B-ADFF-7821AFE88402_20"/>     </g>   </g></g><g class="children" style="overflow:hidden"/><g class="edge"/></g><g class="controls"><g class="dockers"/><g class="magnets" transform="translate(315, 80)"><g pointer-events="all" display="none" transform="translate(-7, 12)"><circle cx="8" cy="8" r="4" stroke="none" fill="red" fill-opacity="0.3"/></g><g pointer-events="all" display="none" transform="translate(-7, 32)"><circle cx="8" cy="8" r="4" stroke="none" fill="red" fill-opacity="0.3"/></g><g pointer-events="all" display="none" transform="translate(-7, 52)"><circle cx="8" cy="8" r="4" stroke="none" fill="red" fill-opacity="0.3"/></g><g pointer-events="all" display="none" transform="translate(17, 71)"><circle cx="8" cy="8" r="4" stroke="none" fill="red" fill-opacity="0.3"/></g><g pointer-events="all" display="none" transform="translate(42, 71)"><circle cx="8" cy="8" r="4" stroke="none" fill="red" fill-opacity="0.3"/></g><g pointer-events="all" display="none" transform="translate(67, 71)"><circle cx="8" cy="8" r="4" stroke="none" fill="red" fill-opacity="0.3"/></g><g pointer-events="all" display="none" transform="translate(91, 12)"><circle cx="8" cy="8" r="4" stroke="none" fill="red" fill-opacity="0.3"/></g><g pointer-events="all" display="none" transform="translate(91, 32)"><circle cx="8" cy="8" r="4" stroke="none" fill="red" fill-opacity="0.3"/></g><g pointer-events="all" display="none" transform="translate(91, 52)"><circle cx="8" cy="8" r="4" stroke="none" fill="red" fill-opacity="0.3"/></g><g pointer-events="all" display="none" transform="translate(17, -7)"><circle cx="8" cy="8" r="4" stroke="none" fill="red" fill-opacity="0.3"/></g><g pointer-events="all" display="none" transform="translate(42, -7)"><circle cx="8" cy="8" r="4" stroke="none" fill="red" fill-opacity="0.3"/></g><g pointer-events="all" display="none" transform="translate(67, -7)"><circle cx="8" cy="8" r="4" stroke="none" fill="red" fill-opacity="0.3"/></g><g pointer-events="all" display="none" transform="translate(42, 32)"><circle cx="8" cy="8" r="4" stroke="none" fill="red" fill-opacity="0.3"/></g></g></g></g><g id="_C523F19D-2E41-469A-8ADD-F979476FF5B0" bpmn2nodeid="_898F2B5E-9E9E-4131-BD31-E13A60651B5F"><g class="stencils" transform="translate(495, 80)"><g class="me"><g pointer-events="fill" oryx:minimumSize="50 40" id="_C523F19D-2E41-469A-8ADD-F979476FF5B0">   	<defs id="_C523F19D-2E41-469A-8ADD-F979476FF5B0__C523F19D-2E41-469A-8ADD-F979476FF5B0_17"> 		<radialGradient id="_C523F19D-2E41-469A-8ADD-F979476FF5B0background" cx="10%" cy="10%" r="100%" fx="10%" fy="10%"> 			<stop offset="0%" stop-color="#ffffff" stop-opacity="1" id="_C523F19D-2E41-469A-8ADD-F979476FF5B0__C523F19D-2E41-469A-8ADD-F979476FF5B0_18"/> 			<stop id="_C523F19D-2E41-469A-8ADD-F979476FF5B0fill_el" offset="100%" stop-color="#fafad2" stop-opacity="1"/> 		</radialGradient> 		<radialGradient id="_C523F19D-2E41-469A-8ADD-F979476FF5B0borderbackground" cx="10%" cy="10%" r="100%" fx="10%" fy="10%"> 			<stop offset="0%" stop-color="#ffffff" stop-opacity="1" id="_C523F19D-2E41-469A-8ADD-F979476FF5B0__C523F19D-2E41-469A-8ADD-F979476FF5B0_19"/> 			<stop id="_C523F19D-2E41-469A-8ADD-F979476FF5B0fill_border" offset="100%" stop-color="#000000" stop-opacity="1" stroke="#000000"/> 		</radialGradient> 	</defs> 	 	<rect id="_C523F19D-2E41-469A-8ADD-F979476FF5B0text_frame" oryx:anchors="bottom top right left" x="1" y="1" width="94" height="79" rx="10" ry="10" stroke="none" stroke-width="0" fill="none"/> 	<rect id="_C523F19D-2E41-469A-8ADD-F979476FF5B0bg_frame" oryx:resize="vertical horizontal" x="0" y="0" width="100" height="80" rx="10" ry="10" stroke="#000000" stroke-width="1" fill="url(#_C523F19D-2E41-469A-8ADD-F979476FF5B0background) #ffffcc"/> 		<text font-size="12" id="_C523F19D-2E41-469A-8ADD-F979476FF5B0text_name" x="50" y="40" oryx:align="middle center" oryx:fittoelem="text_frame" stroke="black" text-anchor="middle" stroke-width="0pt" letter-spacing="-0.01px" fill="#000000" transform="rotate(0 50 40)" visibility="inherit" oryx:fontSize="12"><tspan x="50" y="40" dy="-1" id="ext-gen1071">print employee </tspan><tspan x="50" y="40" dy="11">details</tspan></text>     <g id="_C523F19D-2E41-469A-8ADD-F979476FF5B0manualTask" transform="scale(0.7,0.7) translate(8,8)" display="none">     	<path oryx:anchors="top left" id="_C523F19D-2E41-469A-8ADD-F979476FF5B0frame" style="opacity:1;fill:none;fill-opacity:1;stroke-width:1" d="M0.5,3.751l4.083-3.25c0,0,11.166,0.083,12.083,0.083s-2.417,2.917-1.5,2.917     s11.667,0,12.584,0c1.166,1.708-0.168,3.167-0.834,3.667s0.875,1.917-1,4.417c-0.75,0.25,0.75,1.875-1.333,3.333     c-1.167,0.583,0.583,1.542-1.25,2.833c-1.167,0-20.833,0.083-20.833,0.083l-2-1.333V3.751z" stroke="#000000"/> 		<path id="_C523F19D-2E41-469A-8ADD-F979476FF5B0frame2" oryx:anchors="top left" style="opacity:1;fill:none;stroke-width:2" d="M 13.5 7 L 27 7" stroke="#000000"/> 		<path id="_C523F19D-2E41-469A-8ADD-F979476FF5B0frame3" oryx:anchors="top left" style="opacity:1;fill:none;stroke-width:2" d="M 13.5 11 L 26 11" stroke="#000000"/> 		<path id="_C523F19D-2E41-469A-8ADD-F979476FF5B0frame4" oryx:anchors="top left" style="opacity:1;fill:none;stroke-width:1.5" d="M 14 14.5 L 25 14.5" stroke="#000000"/> 		<path id="_C523F19D-2E41-469A-8ADD-F979476FF5B0frame5" oryx:anchors="top left" style="opacity:1;fill:none;stroke-width:1.5" d="M 8.2 3.1 L 15 3.1" stroke="#000000"/> 	</g> 	 	<g id="_C523F19D-2E41-469A-8ADD-F979476FF5B0businessRuleTask" transform="scale(0.7,0.7) translate(8,8)" display="none"> 		<rect id="_C523F19D-2E41-469A-8ADD-F979476FF5B0frame6" oryx:anchors="top left" x="0" y="0" width="22" height="4" style="opacity:1;fill:#B3B1B3;fill-opacity:1;" stroke="#000000"/> 		<rect id="_C523F19D-2E41-469A-8ADD-F979476FF5B0frame7" oryx:anchors="top left" x="0" y="4" style="opacity:1;fill:none;" width="22" height="12" stroke="#000000"/> 		<path id="_C523F19D-2E41-469A-8ADD-F979476FF5B0frame8" oryx:anchors="top left" style="opacity:1;fill:none;" d="M 0 10 L 22 10" stroke="#000000"/> 		<path id="_C523F19D-2E41-469A-8ADD-F979476FF5B0frame9" oryx:anchors="top left" style="opacity:1; fill:none;" d="M 7 4 L 7 16" stroke="#000000"/> 	</g> 	 	<g id="_C523F19D-2E41-469A-8ADD-F979476FF5B0scriptTask" transform="scale(0.7,0.7) translate(8,8)" display="inherit"> 		<path oryx:anchors="top left" id="_C523F19D-2E41-469A-8ADD-F979476FF5B0frame10" style="opacity:1;fill:none;" stroke="#000000" d="M6.402,0.5h14.5c0,0-5.833,2.833-5.833,5.583s4.417,6,4.417,9.167    s-4.167,5.083-4.167,5.083H0.235c0,0,5-2.667,5-5s-4.583-6.75-4.583-9.25S6.402,0.5,6.402,0.5z"/> 		<path oryx:anchors="top left" id="_C523F19D-2E41-469A-8ADD-F979476FF5B0frame11" style="opacity:1;fill:none;stroke-width:1.5" d="M 3.5 4.5 L 13.5 4.5" stroke="#000000"/> 		<path oryx:anchors="top left" id="_C523F19D-2E41-469A-8ADD-F979476FF5B0frame12" style="opacity:1;fill:none;stroke-width:1.5" d="M 3.8 8.5 L 13.8 8.5" stroke="#000000"/> 		<path oryx:anchors="top left" id="_C523F19D-2E41-469A-8ADD-F979476FF5B0frame13" style="opacity:1;fill:none;stroke-width:1.5" d="M 6.3 12.5 L 16.3 12.5" stroke="#000000"/> 		<path oryx:anchors="top left" id="_C523F19D-2E41-469A-8ADD-F979476FF5B0frame14" style="opacity:1;fill:none;stroke-width:1.5" d="M 6.5 16.5 L 16.5 16.5" stroke="#000000"/> 	</g> 	 	<g id="_C523F19D-2E41-469A-8ADD-F979476FF5B0userTask" transform="scale(0.7,0.7) translate(8,8)" display="none"> 		<path id="_C523F19D-2E41-469A-8ADD-F979476FF5B0frame15" oryx:anchors="top left" style="opacity:1;fill:#F4F6F7" stroke="#000000" d="M0.585,24.167h24.083v-7.833c0,0-2.333-3.917-7.083-5.167h-9.25    c-4.417,1.333-7.833,5.75-7.833,5.75L0.585,24.167z"/> 		<path id="_C523F19D-2E41-469A-8ADD-F979476FF5B0frame16" oryx:anchors="top left" style="opacity:1;fill:none" d="M 6 20 L 6 24" stroke="#000000"/> 		<path id="_C523F19D-2E41-469A-8ADD-F979476FF5B0frame17" oryx:anchors="top left" style="opacity:1;fill:none" d="M 20 20 L 20 24" stroke="#000000"/> 		<circle id="_C523F19D-2E41-469A-8ADD-F979476FF5B0frame18" oryx:anchors="top left" fill="black" cx="13.002" cy="5.916" r="5.417" stroke="#000000"/> 		<path id="_C523F19D-2E41-469A-8ADD-F979476FF5B0frame19" oryx:anchors="top left" style="opacity:1;fill:#F0EFF0;" stroke="#000000" d="M8.043,7.083c0,0,2.814-2.426,5.376-1.807s4.624-0.693,4.624-0.693    c0.25,1.688,0.042,3.75-1.458,5.584c0,0,1.083,0.75,1.083,1.5s0.125,1.875-1,3s-5.5,1.25-6.75,0S8.668,12.834,8.668,12    s0.583-1.25,1.25-1.917C8.835,9.5,7.419,7.708,8.043,7.083z"/> 	</g> 	 	<g id="_C523F19D-2E41-469A-8ADD-F979476FF5B0serviceTask" transform="scale(0.7,0.7) translate(8,8)" display="none"> 		<polygon oryx:anchors="top left" id="_C523F19D-2E41-469A-8ADD-F979476FF5B0frame20" style="opacity:1;fill:#ffffff" stroke="#000000" points="15.392,5.064 17.954,2.502 20.347,4.895 17.786,7.455     18.729,9.732 22.353,9.732 22.353,13.115 18.731,13.115 17.788,15.392 20.351,17.955 17.958,20.347 15.397,17.786 13.12,18.729     13.12,22.353 9.737,22.353 9.737,18.731 7.46,17.788 4.897,20.35 2.506,17.958 5.066,15.397 4.124,13.12 0.5,13.12 0.5,9.737     4.121,9.737 5.065,7.461 2.503,4.898 4.895,2.506 7.455,5.066 9.732,4.125 9.732,0.5 13.116,0.5 13.116,4.121 "/> 		<circle oryx:anchors="top left" id="_C523F19D-2E41-469A-8ADD-F979476FF5B0frame21" style="opacity:1;fill:none" stroke="#000000" cx="11.427" cy="11.426" r="3.714"/> 		<polygon oryx:anchors="top left" id="_C523F19D-2E41-469A-8ADD-F979476FF5B0frame22" style="opacity:1;fill:#ffffff" stroke="#000000" points="21.392,11.064 23.954,8.502 26.347,10.895 23.786,13.455     24.729,15.732 28.353,15.732 28.353,19.115 24.731,19.115 23.788,21.392 26.351,23.955 23.958,26.347 21.397,23.786 19.12,24.729     19.12,28.353 15.737,28.353 15.737,24.731 13.46,23.788 10.897,26.35 8.506,23.958 11.066,21.397 10.124,19.12 6.5,19.12     6.5,15.737 10.121,15.737 11.065,13.461 8.503,10.898 10.895,8.506 13.455,11.066 15.732,10.125 15.732,6.5 19.116,6.5     19.116,10.121 "/> 		<circle oryx:anchors="top left" id="_C523F19D-2E41-469A-8ADD-F979476FF5B0frame23" style="opacity:1;fill:none;" stroke="#000000" cx="17.427" cy="17.426" r="3.714"/> 	</g> 	 	<g id="_C523F19D-2E41-469A-8ADD-F979476FF5B0sendTask" display="none"> 		<path id="_C523F19D-2E41-469A-8ADD-F979476FF5B0stframe24" oryx:anchors="left top" stroke="#FFFFFF" fill="black" stroke-width="1" d="M8,11 L8,21 L24,21 L24,11 L16,17z"/> 		<path id="_C523F19D-2E41-469A-8ADD-F979476FF5B0stframe25" oryx:anchors="left top" stroke="#FFFFFF" fill="black" stroke-width="1" d="M7,10 L16,17 L25 10z"/> 	</g> 	 	<g id="_C523F19D-2E41-469A-8ADD-F979476FF5B0receiveTask" display="none"> 		<path id="_C523F19D-2E41-469A-8ADD-F979476FF5B0frame26" oryx:anchors="left top" stroke="#000000" fill="none" stroke-width="1" d="M8,11 L8,21 L24,21 L24,11z M8,11 L16,17 L24,11"/> 	</g> 	 	<g id="_C523F19D-2E41-469A-8ADD-F979476FF5B0none" display="inherit"/>  	<g id="_C523F19D-2E41-469A-8ADD-F979476FF5B0sequential" display="none">         <path oryx:anchors="bottom" fill="none" stroke="#000000" stroke-width="2" d="M46,76h10M46,72h10 M46,68h10" id="_C523F19D-2E41-469A-8ADD-F979476FF5B0__C523F19D-2E41-469A-8ADD-F979476FF5B0_20"/>     </g>   </g></g><g class="children" style="overflow:hidden"/><g class="edge"/></g><g class="controls"><g class="dockers"/><g class="magnets" transform="translate(495, 80)"><g pointer-events="all" display="none" transform="translate(-7, 12)"><circle cx="8" cy="8" r="4" stroke="none" fill="red" fill-opacity="0.3"/></g><g pointer-events="all" display="none" transform="translate(-7, 32)"><circle cx="8" cy="8" r="4" stroke="none" fill="red" fill-opacity="0.3"/></g><g pointer-events="all" display="none" transform="translate(-7, 52)"><circle cx="8" cy="8" r="4" stroke="none" fill="red" fill-opacity="0.3"/></g><g pointer-events="all" display="none" transform="translate(17, 71)"><circle cx="8" cy="8" r="4" stroke="none" fill="red" fill-opacity="0.3"/></g><g pointer-events="all" display="none" transform="translate(42, 71)"><circle cx="8" cy="8" r="4" stroke="none" fill="red" fill-opacity="0.3"/></g><g pointer-events="all" display="none" transform="translate(67, 71)"><circle cx="8" cy="8" r="4" stroke="none" fill="red" fill-opacity="0.3"/></g><g pointer-events="all" display="none" transform="translate(91, 12)"><circle cx="8" cy="8" r="4" stroke="none" fill="red" fill-opacity="0.3"/></g><g pointer-events="all" display="none" transform="translate(91, 32)"><circle cx="8" cy="8" r="4" stroke="none" fill="red" fill-opacity="0.3"/></g><g pointer-events="all" display="none" transform="translate(91, 52)"><circle cx="8" cy="8" r="4" stroke="none" fill="red" fill-opacity="0.3"/></g><g pointer-events="all" display="none" transform="translate(17, -7)"><circle cx="8" cy="8" r="4" stroke="none" fill="red" fill-opacity="0.3"/></g><g pointer-events="all" display="none" transform="translate(42, -7)"><circle cx="8" cy="8" r="4" stroke="none" fill="red" fill-opacity="0.3"/></g><g pointer-events="all" display="none" transform="translate(67, -7)"><circle cx="8" cy="8" r="4" stroke="none" fill="red" fill-opacity="0.3"/></g><g pointer-events="all" display="none" transform="translate(42, 32)"><circle cx="8" cy="8" r="4" stroke="none" fill="red" fill-opacity="0.3"/></g></g></g></g><g id="_56BBE466-AF13-4A20-9328-40F4E4B17450" bpmn2nodeid="_8287CE08-DF18-4BCB-9DD7-3ED6E8310D40"><g class="stencils" transform="translate(640, 106)"><g class="me"><g pointer-events="fill" id="_56BBE466-AF13-4A20-9328-40F4E4B17450">      <defs id="_56BBE466-AF13-4A20-9328-40F4E4B17450__56BBE466-AF13-4A20-9328-40F4E4B17450_5"> 		<radialGradient id="_56BBE466-AF13-4A20-9328-40F4E4B17450background" cx="10%" cy="10%" r="100%" fx="10%" fy="10%"> 			<stop offset="0%" stop-color="#ffffff" stop-opacity="1" id="_56BBE466-AF13-4A20-9328-40F4E4B17450__56BBE466-AF13-4A20-9328-40F4E4B17450_6"/> 			<stop id="_56BBE466-AF13-4A20-9328-40F4E4B17450fill_el" offset="100%" stop-color="#ff6347" stop-opacity="1"/> 		</radialGradient> 	</defs> 	     <circle id="_56BBE466-AF13-4A20-9328-40F4E4B17450bg_frame" cx="14" cy="14" r="14" stroke="#000000" fill="url(#_56BBE466-AF13-4A20-9328-40F4E4B17450background) white" stroke-width="3"/> 	<text font-size="11" id="_56BBE466-AF13-4A20-9328-40F4E4B17450text_name" x="14" y="30" oryx:align="top center" stroke="black" stroke-width="0pt" letter-spacing="-0.01px" fill="#000000" text-anchor="middle" transform="rotate(0 14 30)" visibility="inherit" oryx:fontSize="11"/>   </g></g><g class="children" style="overflow:hidden"/><g class="edge"/></g><g class="controls"><g class="dockers"/><g class="magnets" transform="translate(640, 106)"><g pointer-events="all" display="none" transform="translate(6, 6)"><circle cx="8" cy="8" r="4" stroke="none" fill="red" fill-opacity="0.3"/></g></g></g></g></g><g class="edge"><g id="_E9FE496D-88BF-42AB-B917-FD3E8A8260D5" bpmn2nodeid="_9235B85C-062E-48FB-8921-9BFA401FB14D"><g class="stencils"><g class="me"><g pointer-events="painted" bpmn2nodeid="_000C38FD-CC55-4E94-8B21-441127576FF5"><path id="_E9FE496D-88BF-42AB-B917-FD3E8A8260D5_1" d="M105.6484375 120L164.1953125 120 " stroke="#000000" fill="none" stroke-width="2" stroke-linecap="round" stroke-linejoin="round" marker-start="url(#_E9FE496D-88BF-42AB-B917-FD3E8A8260D5start)" marker-end="url(#_E9FE496D-88BF-42AB-B917-FD3E8A8260D5end)"/></g><text id="_E9FE496D-88BF-42AB-B917-FD3E8A8260D5text_name" font-size="12" x="119.6484375" y="106" oryx:edgePosition="startTop" stroke-width="0pt" letter-spacing="-0.01px" fill="#000000" text-anchor="start" transform="rotate(360 105.6484375 120)" visibility="inherit" oryx:fontSize="12"/></g><g class="children" style="overflow:hidden"/><g class="edge"/></g><g class="controls"><g class="dockers"/><g class="magnets"/></g></g><g id="_FA7D2E72-E21A-44D9-9416-9382E0467C1C" bpmn2nodeid="_2048D732-02FC-4CDD-A8F7-6408E87CA98F"><g class="stencils"><g class="me"><g pointer-events="painted" bpmn2nodeid="_736E4284-475D-4C28-9241-C9D4ABFD8014"><path id="_FA7D2E72-E21A-44D9-9416-9382E0467C1C_1" d="M265.21875 120L314.78125 120 " stroke="#000000" fill="none" stroke-width="2" stroke-linecap="round" stroke-linejoin="round" marker-start="url(#_FA7D2E72-E21A-44D9-9416-9382E0467C1Cstart)" marker-end="url(#_FA7D2E72-E21A-44D9-9416-9382E0467C1Cend)"/></g><text id="_FA7D2E72-E21A-44D9-9416-9382E0467C1Ctext_name" font-size="12" x="279.21875" y="106" oryx:edgePosition="startTop" stroke-width="0pt" letter-spacing="-0.01px" fill="#000000" text-anchor="start" transform="rotate(360 265.21875 120)" visibility="inherit" oryx:fontSize="12"/></g><g class="children" style="overflow:hidden"/><g class="edge"/></g><g class="controls"><g class="dockers"/><g class="magnets"/></g></g><g id="_A3D3D22A-8B49-4374-BD7A-B3D28329203C" bpmn2nodeid="_95631390-D5C6-4C75-9362-B07CF4925CC0"><g class="stencils"><g class="me"><g pointer-events="painted" bpmn2nodeid="_95631390-D5C6-4C75-9362-B07CF4925CC0"><path id="_A3D3D22A-8B49-4374-BD7A-B3D28329203C_1" d="M415.21875 120L494.78125 120 " stroke="#000000" fill="none" stroke-width="2" stroke-linecap="round" stroke-linejoin="round" marker-start="url(#_A3D3D22A-8B49-4374-BD7A-B3D28329203Cstart)" marker-end="url(#_A3D3D22A-8B49-4374-BD7A-B3D28329203Cend)"/></g><text id="_A3D3D22A-8B49-4374-BD7A-B3D28329203Ctext_name" font-size="12" x="429.21875" y="106" oryx:edgePosition="startTop" stroke-width="0pt" letter-spacing="-0.01px" fill="#000000" text-anchor="start" transform="rotate(360 415.21875 120)" visibility="inherit" oryx:fontSize="12"/></g><g class="children" style="overflow:hidden"/><g class="edge"/></g><g class="controls"><g class="dockers"/><g class="magnets"/></g></g><g id="_56220093-F345-4443-A0CD-E968BCCC1287" bpmn2nodeid="_1E093D3F-9517-46F2-A6D2-AA89D1232662"><g class="stencils"><g class="me"><g pointer-events="painted" bpmn2nodeid="_1E093D3F-9517-46F2-A6D2-AA89D1232662"><path id="_56220093-F345-4443-A0CD-E968BCCC1287_1" d="M595.390625 120L639.375 120 " stroke="#000000" fill="none" stroke-width="2" stroke-linecap="round" stroke-linejoin="round" marker-start="url(#_56220093-F345-4443-A0CD-E968BCCC1287start)" marker-end="url(#_56220093-F345-4443-A0CD-E968BCCC1287end)"/></g><text id="_56220093-F345-4443-A0CD-E968BCCC1287text_name" font-size="12" x="609.390625" y="106" oryx:edgePosition="startTop" stroke-width="0pt" letter-spacing="-0.01px" fill="#000000" text-anchor="start" transform="rotate(360 595.390625 120)" visibility="inherit" oryx:fontSize="12"/></g><g class="children" style="overflow:hidden"/><g class="edge"/></g><g class="controls"><g class="dockers"/><g class="magnets"/></g></g></g><text id="_6D9E5DFF-50AB-4445-8B51-09812DA434BB" style="stroke-width:1;fill:rgb(177,194,214);font-family:arial;font-weight:bold" font-size="12" onclick="ORYX.Plugins.CanvasTitle.openTextualAnalysis()" onmouseover="ORYX.Plugins.CanvasTitle.addToolTip('_6D9E5DFF-50AB-4445-8B51-09812DA434BB')" transform="translate(10, 20)">taskTest v.1.0 (com.taskpoc.taskproj.taskTest)</text></g></g></svg>